<svg xmlns="http://www.w3.org/2000/svg" xmlns:xlink="http://www.w3.org/1999/xlink" width="152" height="152" viewBox="0 0 152 152"><defs><linearGradient id="a" x1="0.069" x2="0.896" y2="0.938" gradientUnits="objectBoundingBox"><stop offset="0" stop-color="#ff4757"/><stop offset="1" stop-color="#e13b49"/></linearGradient><filter id="b" x="3" y="-5" width="146.266" height="167.644" filterUnits="userSpaceOnUse"><feOffset dy="3" input="SourceAlpha"/><feGaussianBlur stdDeviation="3" result="c"/><feFlood flood-opacity="0.161"/><feComposite operator="in" in2="c"/><feComposite in="SourceGraphic"/></filter><filter id="d" x="31.132" y="25.136" width="90.668" height="125.115" filterUnits="userSpaceOnUse"><feOffset dy="3" input="SourceAlpha"/><feGaussianBlur stdDeviation="3" result="e"/><feFlood flood-opacity="0.38"/><feComposite operator="in" in2="e"/><feComposite in="SourceGraphic"/></filter><filter id="f" x="31.132" y="19.136" width="90.668" height="125.115" filterUnits="userSpaceOnUse"><feOffset dy="-3" input="SourceAlpha"/><feGaussianBlur stdDeviation="3" result="g"/><feFlood flood-color="#fff" flood-opacity="0.62"/><feComposite operator="in" in2="g"/><feComposite in="SourceGraphic"/></filter><clipPath id="i"><rect width="152" height="152"/></clipPath></defs><g id="h" clip-path="url(#i)"><g transform="translate(-42 -37)"><g transform="matrix(1, 0, 0, 1, 42, 37)" filter="url(#b)"><path d="M-11276.867-572.357a17.461,17.461,0,0,1-4.516-1.174c-2.332-.825-5.129-2-8.1-3.387a148.97,148.97,0,0,1-21.758-12.6c-8.68-6.1-15.609-12.5-20.605-19.024-6.074-7.942-9.156-15.959-9.156-23.827V-718.8a3.228,3.228,0,0,1,3.082-3.2l.129,0,33.84,1.76a62.286,62.286,0,0,1,8.766.81,41,41,0,0,1,11.25,3.24l.727.341c2.539,1.186,4.367,2.043,6.34,2.107,1.965-.064,3.8-.921,6.34-2.107l0,0c.238-.11.477-.223.727-.338a40.956,40.956,0,0,1,11.25-3.24,62.286,62.286,0,0,1,8.766-.81l33.84-1.76.129,0a3.224,3.224,0,0,1,3.078,3.2v86.426c0,7.868-3.078,15.885-9.16,23.827-4.988,6.527-11.922,12.928-20.6,19.024a148.816,148.816,0,0,1-21.758,12.6c-2.965,1.391-5.77,2.562-8.094,3.387A17.515,17.515,0,0,1-11276.867-572.357Zm-50.941-137.248a2.7,2.7,0,0,0-2.57,2.673v72.107c0,15.134,13.508,27.8,24.84,35.754a124.085,124.085,0,0,0,18.148,10.516c5.582,2.615,9.371,3.805,10.52,3.805s4.941-1.191,10.527-3.805a124.38,124.38,0,0,0,18.152-10.516c11.332-7.957,24.836-20.619,24.836-35.754v-72.107a2.693,2.693,0,0,0-2.57-2.673l-.105,0-28.238,1.467c-2.113,0-11.137.573-16.7,3.379-.176.081-.344.16-.508.238l-.09.042c-2.125.992-3.66,1.708-5.3,1.763-1.645-.056-3.176-.772-5.293-1.763-.2-.091-.395-.185-.6-.28-5.562-2.805-14.59-3.379-16.7-3.379l-28.234-1.467Z" transform="translate(11353 723)" fill="url(#a)"/></g><g transform="matrix(1, 0, 0, 1, 42, 37)" filter="url(#d)"><path d="M-11262.891-569.775c-1.152,0-4.934-1.191-10.523-3.807a123.847,123.847,0,0,1-18.148-10.515c-2.437-1.71-4.738-3.476-6.852-5.25-.383-7.541-.559-16.169-.441-16.708.586-2.574,2.406-4.879,5.422-6.851a30.225,30.225,0,0,1,6.406-3.047,35.86,35.86,0,0,1,6.363-1.306h0c1.277-.185,2.488-.36,3.492-.585,1.672-.366,3.836-1.226,4.563-2.1.75-.9.3-9.246.3-9.33a29.062,29.062,0,0,1-2.16-4.105,52.639,52.639,0,0,1-1.582-7.171v0a1.592,1.592,0,0,1-.855-.341,3.664,3.664,0,0,1-1.246-2.384,23.887,23.887,0,0,0-.781-2.882,8.709,8.709,0,0,1-.621-3.457c.105-2.061,1.176-2.12,1.3-2.12h.008v0a35.358,35.358,0,0,1-1.27-9.706,14.649,14.649,0,0,1,1-5.646,14.369,14.369,0,0,1,3.16-4.915,15.5,15.5,0,0,1,5.371-3.539,20.083,20.083,0,0,1,7.449-1.341,19.8,19.8,0,0,1,7.406,1.349,15.567,15.567,0,0,1,5.379,3.559,14.679,14.679,0,0,1,3.176,4.9,14.45,14.45,0,0,1,1,5.628c-.125,6.427-1.27,9.678-1.285,9.709h0c.125,0,1.2.06,1.3,2.12a8.7,8.7,0,0,1-.621,3.459v.009a23.262,23.262,0,0,0-.777,2.872,3.7,3.7,0,0,1-1.258,2.384,1.57,1.57,0,0,1-.844.341v.021a51.987,51.987,0,0,1-1.59,7.153,27.653,27.653,0,0,1-2.156,4.105c0,.084-.449,8.434.3,9.33.727.875,2.891,1.736,4.559,2.1,1.008.225,2.219.4,3.5.586a36.026,36.026,0,0,1,6.359,1.306,30.51,30.51,0,0,1,6.414,3.048c3.012,1.971,4.832,4.276,5.414,6.851.109.514-.051,8.671-.41,16.116-2.3,1.98-4.84,3.946-7.543,5.842a124.954,124.954,0,0,1-18.148,10.515C-11257.949-570.966-11261.73-569.775-11262.891-569.775Z" transform="translate(11339.02 708.03)" fill="#ff4757"/></g><g transform="matrix(1, 0, 0, 1, 42, 37)" filter="url(#f)"><path d="M-11262.891-569.775c-1.152,0-4.934-1.191-10.523-3.807a123.847,123.847,0,0,1-18.148-10.515c-2.437-1.71-4.738-3.476-6.852-5.25-.383-7.541-.559-16.169-.441-16.708.586-2.574,2.406-4.879,5.422-6.851a30.225,30.225,0,0,1,6.406-3.047,35.86,35.86,0,0,1,6.363-1.306h0c1.277-.185,2.488-.36,3.492-.585,1.672-.366,3.836-1.226,4.563-2.1.75-.9.3-9.246.3-9.33a29.062,29.062,0,0,1-2.16-4.105,52.639,52.639,0,0,1-1.582-7.171v0a1.592,1.592,0,0,1-.855-.341,3.664,3.664,0,0,1-1.246-2.384,23.887,23.887,0,0,0-.781-2.882,8.709,8.709,0,0,1-.621-3.457c.105-2.061,1.176-2.12,1.3-2.12h.008v0a35.358,35.358,0,0,1-1.27-9.706,14.649,14.649,0,0,1,1-5.646,14.369,14.369,0,0,1,3.16-4.915,15.5,15.5,0,0,1,5.371-3.539,20.083,20.083,0,0,1,7.449-1.341,19.8,19.8,0,0,1,7.406,1.349,15.567,15.567,0,0,1,5.379,3.559,14.679,14.679,0,0,1,3.176,4.9,14.45,14.45,0,0,1,1,5.628c-.125,6.427-1.27,9.678-1.285,9.709h0c.125,0,1.2.06,1.3,2.12a8.7,8.7,0,0,1-.621,3.459v.009a23.262,23.262,0,0,0-.777,2.872,3.7,3.7,0,0,1-1.258,2.384,1.57,1.57,0,0,1-.844.341v.021a51.987,51.987,0,0,1-1.59,7.153,27.653,27.653,0,0,1-2.156,4.105c0,.084-.449,8.434.3,9.33.727.875,2.891,1.736,4.559,2.1,1.008.225,2.219.4,3.5.586a36.026,36.026,0,0,1,6.359,1.306,30.51,30.51,0,0,1,6.414,3.048c3.012,1.971,4.832,4.276,5.414,6.851.109.514-.051,8.671-.41,16.116-2.3,1.98-4.84,3.946-7.543,5.842a124.954,124.954,0,0,1-18.148,10.515C-11257.949-570.966-11261.73-569.775-11262.891-569.775Z" transform="translate(11339.02 708.03)" fill="rgba(255,71,87,0.08)"/></g></g></g></svg>